<svg xmlns="http://www.w3.org/2000/svg" viewBox="0 0 971.51 600.02">
<defs>
<style>.cls-1{fill:#87777a;}.cls-2{fill:#eee0d7;}.cls-10,.cls-11,.cls-12,.cls-16,.cls-2,.cls-21,.cls-22,.cls-26,.cls-30,.cls-31,.cls-32,.cls-33,.cls-34,.cls-36,.cls-8,.cls-9{stroke:#231f20;}.cls-10,.cls-11,.cls-12,.cls-14,.cls-16,.cls-2,.cls-21,.cls-22,.cls-26,.cls-28,.cls-30,.cls-31,.cls-32,.cls-33,.cls-34,.cls-36,.cls-8,.cls-9{stroke-miterlimit:10;}.cls-3{font-size:11.69px;}.cls-15,.cls-3,.cls-32{fill:#231f20;}.cls-15,.cls-3{font-family:MyriadPro-Regular, Myriad Pro;}.cls-4{letter-spacing:1.17em;}.cls-5{letter-spacing:0em;}.cls-6{letter-spacing:-0.08em;}.cls-7{letter-spacing:-0.03em;}.cls-14,.cls-26,.cls-28,.cls-8,.cls-9{fill:none;}.cls-14,.cls-28,.cls-8{stroke-width:2px;}.cls-10{fill:#008ec0;}.cls-11{fill:#648997;}.cls-12{fill:#a28181;}.cls-13{fill:#fff;}.cls-14{stroke:#f1f2f2;}.cls-15{font-size:9.92px;}.cls-16{fill:#f6b01a;}.cls-17{letter-spacing:-0.01em;}.cls-18{letter-spacing:0em;}.cls-19{letter-spacing:0em;}.cls-20{letter-spacing:-0.01em;}.cls-21{fill:#ebd4d2;}.cls-22,.cls-23{fill:#f3b21c;}.cls-24{letter-spacing:-0.01em;}.cls-25{letter-spacing:0em;}.cls-26{stroke-width:4px;}.cls-27{letter-spacing:-0.01em;}.cls-28{stroke:#f3b21c;}.cls-29{letter-spacing:0.02em;}.cls-30{fill:#f05334;}.cls-31{fill:#f8ad1a;}.cls-33{fill:#f15826;}.cls-34{fill:#edc582;}.cls-35{letter-spacing:-0.03em;}.cls-36{fill:#008acd;}.cls-37{letter-spacing:-0.02em;}.cls-38{letter-spacing:0em;}.cls-39{letter-spacing:0.01em;}.cls-40{letter-spacing:-0.04em;}.cls-41{letter-spacing:0em;}.cls-42{letter-spacing:0.03em;}.cls-43{letter-spacing:-0.04em;}.cls-44{letter-spacing:0em;}.cls-45{letter-spacing:0em;}</style>
</defs><title>Homepage</title><g id="Background"><rect class="cls-1" width="969.83" height="600.01"/><rect class="cls-2" x="0.58" y="576.21" width="970.42" height="23.3"/><text class="cls-3" transform="translate(843.97 592.45)">© 2022<tspan class="cls-4" x="34.39" y="0">	</tspan><tspan x="50.51" y="0">HE</tspan><tspan class="cls-5" x="63.88" y="0">E</tspan><tspan class="cls-6" x="69.67" y="0">Y</tspan><tspan x="75.05" y="0">A MO</tspan><tspan class="cls-7" x="102.14" y="0">D</tspan><tspan x="109.6" y="0">Y</tspan></text></g><g id="Home"><rect class="cls-2" x="59.35" y="40.67" width="57.67" height="49.16" rx="7"/><rect class="cls-2" x="52.78" y="89.84" width="72.26" height="25.62" rx="5.37"/><line class="cls-8" x1="58.41" y1="96.46" x2="69.23" y2="96.46"/><rect class="cls-9" x="58.22" y="103.63" width="28.95" height="4.73" rx="2.36"/><rect class="cls-10" x="65.11" y="45.67" width="46.87" height="39.62"/><circle class="cls-11" cx="106.37" cy="105.82" r="2.49"/><circle class="cls-12" cx="116.8" cy="105.82" r="2.49"/><ellipse class="cls-13" cx="74.88" cy="61.85" rx="1.75" ry="2"/><ellipse class="cls-13" cx="102.44" cy="61.85" rx="1.75" ry="2"/><path class="cls-14" d="M81.7,63.66a7,7,0,0,0,7,7" transform="translate(0 0.01)"/><path class="cls-14" d="M95.7,63.66a7,7,0,0,1-7,7" transform="translate(0 0.01)"/><rect class="cls-2" x="70.21" y="126.4" width="38.25" height="15.02" rx="7.51"/><text class="cls-15" transform="translate(77.42 137.02)">home</text></g><g id="Featured"><path class="cls-16" d="M202.47,111.79H186c-2.55,0-4.64-2.68-4.64-6V59.6c0-3.27,2.09-6,4.64-6h16.51c2.55,0,4.73,6.49,6.05,9l-1.4,43.16C207.12,109.11,205,111.79,202.47,111.79Z" transform="translate(0 0.01)"/><rect class="cls-2" x="192.69" y="126.28" width="50.65" height="15.02" rx="7.51"/><text class="cls-15" transform="translate(200.81 136.91)"><tspan class="cls-17">f</tspan><tspan x="2.77" y="0">e</tspan><tspan class="cls-18" x="7.74" y="0">a</tspan><tspan class="cls-19" x="12.48" y="0">tu</tspan><tspan class="cls-20" x="21.23" y="0">r</tspan><tspan x="24.38" y="0">ed</tspan></text><path class="cls-16" d="M236.15,66.16h-27a2.64,2.64,0,0,1-2.78-2.44h0c0-1.33,0-2.46,1.58-2.46l28.2,0a2.63,2.63,0,0,1,2.78,2.43h0A2.64,2.64,0,0,1,236.15,66.16Z" transform="translate(0 0.01)"/><rect class="cls-21" x="184.51" y="64.06" width="65.22" height="47.33" rx="5.87"/><path class="cls-22" d="M242,111.78l-48,.12c-6.87,0-7.88.66-7.88-2.62l9.2-34.75c1.1-3.61,2.44-5,6.77-5l52.82,0c4.34,0,4.42,2,4.42,5.28l-8.83,33.64C248.64,111.23,246.35,111.78,242,111.78Z" transform="translate(0 0.01)"/><path class="cls-23" d="M206.78,63.55H205.3c-1,0-1.25-.89-1.25-1.8h0a1.71,1.71,0,0,1,1.75-1.66l.36-1.11c-.34-1,.88,1.67,1.39,2.77l.1.13C207.65,62.79,207.74,63.55,206.78,63.55Z" transform="translate(0 0.01)"/></g><g id="Upcoming"><path class="cls-16" d="M868.07,230.11H851.56c-2.55,0-4.64-2.68-4.64-6V177.92c0-3.27,2.09-5.95,4.64-5.95h16.51c2.56,0,4.73,6.49,6,9l-1.4,43.16C872.72,227.43,870.63,230.11,868.07,230.11Z" transform="translate(0 0.01)"/><rect class="cls-2" x="853.33" y="244.6" width="59.63" height="15.02" rx="7.51"/><text class="cls-15" transform="translate(861.94 255.22)">up<tspan class="cls-24" x="11.11" y="0">c</tspan><tspan class="cls-25" x="15.5" y="0">oming</tspan></text><path class="cls-16" d="M901.75,184.47h-27A2.63,2.63,0,0,1,872,182h0c0-1.34,0-2.46,1.58-2.46l28.2,0a2.63,2.63,0,0,1,2.78,2.43h0A2.63,2.63,0,0,1,901.75,184.47Z" transform="translate(0 0.01)"/><rect class="cls-21" x="850.11" y="182.38" width="65.22" height="47.33" rx="6.61"/><path class="cls-22" d="M907.62,230.1l-48,.12c-6.87,0-7.88.66-7.88-2.62l9.2-34.75c1.1-3.62,2.44-5,6.77-5l52.83,0c4.33,0,4.41,2,4.41,5.29l-8.83,33.64C914.24,229.55,912,230.1,907.62,230.1Z" transform="translate(0 0.01)"/><path class="cls-23" d="M872.4,181.86h-1.48c-1,0-1.24-.89-1.24-1.8h0a1.71,1.71,0,0,1,1.74-1.66l.37-1.1c-.35-1,.87,1.66,1.38,2.76l.11.08C873.28,181,873.37,181.86,872.4,181.86Z" transform="translate(0 0.01)"/></g><g id="Archive"><path class="cls-26" d="M875.1,61.16c0-4.17,3.19-5.65,7.06-5.63" transform="translate(0 0.01)"/><path class="cls-26" d="M889.16,61.16c0-4.17-3.19-5.64-7.06-5.63" transform="translate(0 0.01)"/><rect class="cls-22" x="864.6" y="65.26" width="35.39" height="46.74" rx="5.19"/><rect class="cls-2" x="860.17" y="126.19" width="44.48" height="15.02" rx="7.51"/><text class="cls-15" transform="translate(867.78 136.81)">a<tspan class="cls-27" x="4.78" y="0">r</tspan><tspan x="7.93" y="0">chi</tspan><tspan class="cls-27" x="20.2" y="0">v</tspan><tspan x="24.88" y="0">e</tspan></text><path class="cls-28" d="M875.12,61.12c0-4.17,3.2-5.65,7.07-5.63" transform="translate(0 0.01)"/><path class="cls-28" d="M889.19,61.13c0-4.18-3.19-5.65-7.07-5.64" transform="translate(0 0.01)"/><rect class="cls-22" x="860.31" y="60.85" width="43.49" height="9.74" rx="2.29"/><line class="cls-8" x1="868.52" y1="61.03" x2="868.52" y2="67.47"/><line class="cls-8" x1="877.26" y1="61.03" x2="877.26" y2="67.47"/><line class="cls-8" x1="887.04" y1="60.99" x2="887.04" y2="67.42"/><line class="cls-8" x1="895.62" y1="61.06" x2="895.62" y2="67.49"/><line class="cls-8" x1="872.99" y1="70.44" x2="872.99" y2="105.44"/><line class="cls-8" x1="882.07" y1="70.65" x2="882.07" y2="105.44"/><line class="cls-8" x1="891.61" y1="70.54" x2="891.61" y2="105.54"/></g><g id="Art_Compilation" data-name="Art Compilation"><rect class="cls-2" x="56" y="178.18" width="67.96" height="51.48" rx="6.25"/><rect class="cls-2" x="41.13" y="244.34" width="98.54" height="15.02" rx="7.51"/><text class="cls-15" transform="translate(49.25 254.96)">a<tspan class="cls-29" x="4.78" y="0">r</tspan><tspan class="cls-24" x="8.27" y="0">tc</tspan><tspan x="15.88" y="0">ompil</tspan><tspan class="cls-18" x="39.91" y="0">a</tspan><tspan x="44.65" y="0">tion.mp4</tspan></text><rect class="cls-30" x="61.15" y="183.13" width="57.62" height="42.04"/><polygon class="cls-31" points="92.34 208.18 84.23 212.88 84.2 203.32 84.23 193.99 92.26 198.39 100.59 203.43 92.34 208.18"/></g><g id="Research"><rect class="cls-32" x="65.86" y="305.51" width="41.35" height="53.35" rx="4.21"/><rect class="cls-2" x="62.72" y="373.6" width="51.16" height="15.02" rx="7.51"/><text class="cls-15" transform="translate(70.84 384.22)"><tspan class="cls-20">r</tspan><tspan x="3.15" y="0">esea</tspan><tspan class="cls-20" x="21.8" y="0">r</tspan><tspan x="24.95" y="0">ch</tspan></text><rect class="cls-2" x="70.16" y="301.44" width="41.35" height="53.35" rx="3.97"/><line class="cls-8" x1="77.71" y1="315.98" x2="104.71" y2="315.98"/><line class="cls-8" x1="77.66" y1="323.34" x2="104.66" y2="323.34"/><line class="cls-8" x1="77.73" y1="330.7" x2="104.74" y2="330.7"/><line class="cls-8" x1="77.73" y1="338.06" x2="104.74" y2="338.06"/><line class="cls-8" x1="77.73" y1="345.42" x2="104.74" y2="345.42"/><path class="cls-8" d="M75.14,301.34c0-4.8,4.85-8.64,4.62,4.21" transform="translate(0 0.01)"/><path class="cls-8" d="M83.43,301.32c0-4.79,4.86-8.64,4.63,4.21" transform="translate(0 0.01)"/><path class="cls-8" d="M91.67,301.24c0-4.8,4.86-8.64,4.63,4.2" transform="translate(0 0.01)"/><path class="cls-8" d="M100,301.24c0-4.8,4.86-8.64,4.63,4.2" transform="translate(0 0.01)"/></g><g id="FeatWin"><rect class="cls-32" x="220.18" y="285.51" width="345.27" height="235.78" rx="8.66"/><rect class="cls-2" x="226.16" y="279.86" width="345.27" height="235.78" rx="8.66"/><path class="cls-33" d="M234.82,279.86H562.76a8.66,8.66,0,0,1,8.66,8.66V298a0,0,0,0,1,0,0H226.16a0,0,0,0,1,0,0v-9.44A8.66,8.66,0,0,1,234.82,279.86Z"/><circle class="cls-9" cx="529.96" cy="289.35" r="4.51"/><line class="cls-9" x1="541.44" y1="292.77" x2="549.69" y2="292.77"/><path class="cls-2" d="M557.28,298h14.14a0,0,0,0,1,0,0V507a8.66,8.66,0,0,1-8.66,8.66h-5.5a.09.09,0,0,1-.09-.09V298.08A.12.12,0,0,1,557.28,298Z"/><line class="cls-9" x1="571.47" y1="310.56" x2="557.09" y2="310.56"/><line class="cls-9" x1="571.43" y1="500.71" x2="557.04" y2="500.71"/><line class="cls-9" x1="564.51" y1="301.31" x2="560.99" y2="307.19"/><line class="cls-9" x1="564.41" y1="301.22" x2="567.98" y2="307.21"/><polygon class="cls-2" points="564.48 301.34 564.28 301.69 564.48 301.33 564.7 301.71 564.48 301.34"/><line class="cls-9" x1="564.61" y1="510.43" x2="561.1" y2="504.55"/><line class="cls-9" x1="564.51" y1="510.52" x2="568.09" y2="504.53"/><polygon class="cls-2" points="564.59 510.4 564.39 510.05 564.58 510.41 564.81 510.03 564.59 510.4"/><rect class="cls-34" x="560.47" y="315.06" width="7.7" height="181.25" rx="3.85"/><text class="cls-15" transform="translate(234.64 293.02)"><tspan class="cls-35">F</tspan><tspan x="4.52" y="0">e</tspan><tspan class="cls-18" x="9.5" y="0">a</tspan><tspan class="cls-19" x="14.24" y="0">tu</tspan><tspan class="cls-20" x="22.99" y="0">r</tspan><tspan x="26.14" y="0">ed</tspan></text></g><g id="FeatWinClose"><line class="cls-9" x1="564.16" y1="292.97" x2="556.22" y2="285.03"/><line class="cls-9" x1="556.26" y1="292.95" x2="564.2" y2="285.02"/></g><g id="artofbeing"><circle class="cls-36" cx="289.71" cy="339.78" r="26.32"/><rect class="cls-2" x="249.44" y="380.15" width="81.19" height="15.02" rx="7.51"/><text class="cls-15" transform="translate(257.05 390.77)">a<tspan class="cls-29" x="4.78" y="0">r</tspan><tspan class="cls-24" x="8.27" y="0">t</tspan><tspan x="11.49" y="0">ofbein</tspan><tspan class="cls-37" x="38.28" y="0">g</tspan><tspan x="43.68" y="0">.</tspan><tspan class="cls-18" x="45.73" y="0">h</tspan><tspan x="51.2" y="0">tml</tspan></text><line class="cls-9" x1="289.68" y1="313.46" x2="289.68" y2="366.35"/><line class="cls-9" x1="316.27" y1="339.74" x2="263.38" y2="339.74"/><line class="cls-9" x1="267.93" y1="324.98" x2="311.48" y2="324.98"/><line class="cls-9" x1="267.32" y1="353.75" x2="312.15" y2="353.65"/><path class="cls-9" d="M289.71,313.45c32.86,26.35,0,52.64,0,52.64" transform="translate(0 0.01)"/><path class="cls-9" d="M289.45,313.52c-33.33,26.55,0,52.63,0,52.63" transform="translate(0 0.01)"/></g><g id="naiad"><circle class="cls-36" cx="394.08" cy="339.93" r="26.32"/><rect class="cls-2" x="364.33" y="380.3" width="60.14" height="15.02" rx="7.51"/><text class="cls-15" transform="translate(372.33 390.92)">naia<tspan class="cls-20" x="17.39" y="0">d</tspan><tspan x="22.89" y="0">.</tspan><tspan class="cls-38" x="24.95" y="0">h</tspan><tspan class="cls-19" x="30.41" y="0">tml</tspan></text><line class="cls-9" x1="394.05" y1="313.61" x2="394.05" y2="366.51"/><line class="cls-9" x1="420.64" y1="339.89" x2="367.75" y2="339.89"/><line class="cls-9" x1="372.3" y1="325.13" x2="415.84" y2="325.13"/><line class="cls-9" x1="371.69" y1="353.9" x2="416.51" y2="353.81"/><path class="cls-9" d="M394.08,313.61c32.86,26.34,0,52.63,0,52.63" transform="translate(0 0.01)"/><path class="cls-9" d="M393.82,313.67c-33.33,26.56,0,52.64,0,52.64" transform="translate(0 0.01)"/></g><g id="identity"><circle class="cls-36" cx="494.25" cy="340.06" r="26.32"/><rect class="cls-2" x="459.12" y="380.43" width="71.03" height="15.02" rx="7.51"/><text class="cls-15" transform="translate(468.03 391.05)">ide<tspan class="cls-38" x="12.89" y="0">n</tspan><tspan x="18.36" y="0">ti</tspan><tspan class="cls-39" x="23.96" y="0">t</tspan><tspan class="cls-40" x="27.34" y="0">y</tspan><tspan x="31.62" y="0">.</tspan><tspan class="cls-41" x="33.68" y="0">h</tspan><tspan x="39.15" y="0">tml</tspan></text><line class="cls-9" x1="494.22" y1="313.74" x2="494.22" y2="366.64"/><line class="cls-9" x1="520.8" y1="340.02" x2="467.91" y2="340.02"/><line class="cls-9" x1="472.46" y1="325.26" x2="516.01" y2="325.26"/><line class="cls-9" x1="471.86" y1="354.03" x2="516.68" y2="353.93"/><path class="cls-9" d="M494.25,313.74c32.85,26.34,0,52.63,0,52.63" transform="translate(0 0.01)"/><path class="cls-9" d="M494,313.8c-33.33,26.56,0,52.64,0,52.64" transform="translate(0 0.01)"/></g><g id="gpt2"><circle class="cls-36" cx="290.38" cy="434.69" r="26.32"/><rect class="cls-2" x="261.8" y="475.06" width="57.02" height="15.02" rx="7.51"/><text class="cls-15" transform="translate(270.61 485.68)"><tspan class="cls-24">g</tspan><tspan x="5.49" y="0">pt2.</tspan><tspan class="cls-38" x="21.56" y="0">h</tspan><tspan class="cls-19" x="27.03" y="0">tml</tspan></text><line class="cls-9" x1="290.35" y1="408.37" x2="290.35" y2="461.26"/><line class="cls-9" x1="316.93" y1="434.65" x2="264.04" y2="434.65"/><line class="cls-9" x1="268.59" y1="419.89" x2="312.14" y2="419.89"/><line class="cls-9" x1="267.99" y1="448.66" x2="312.81" y2="448.56"/><path class="cls-9" d="M290.38,408.36c32.85,26.35,0,52.64,0,52.64" transform="translate(0 0.01)"/><path class="cls-9" d="M290.11,408.43c-33.32,26.55,0,52.63,0,52.63" transform="translate(0 0.01)"/></g><g id="blood_binary" data-name="blood&amp;binary"><circle class="cls-36" cx="394.29" cy="434.78" r="26.32"/><rect class="cls-2" x="346.26" y="475.15" width="96.66" height="15.02" rx="7.51"/><text class="cls-15" transform="translate(355.68 485.77)">blood&amp;bina<tspan class="cls-42" x="48.74" y="0">r</tspan><tspan class="cls-43" x="52.23" y="0">y</tspan><tspan x="56.52" y="0">.</tspan><tspan class="cls-18" x="58.57" y="0">h</tspan><tspan x="64.04" y="0">tml</tspan></text><line class="cls-9" x1="394.26" y1="408.46" x2="394.26" y2="461.36"/><line class="cls-9" x1="420.85" y1="434.74" x2="367.96" y2="434.74"/><line class="cls-9" x1="372.51" y1="419.98" x2="416.06" y2="419.98"/><line class="cls-9" x1="371.9" y1="448.75" x2="416.73" y2="448.65"/><path class="cls-9" d="M394.29,408.46c32.86,26.34,0,52.63,0,52.63" transform="translate(0 0.01)"/><path class="cls-9" d="M394,408.52c-33.33,26.56,0,52.64,0,52.64" transform="translate(0 0.01)"/></g><g id="period"><circle class="cls-36" cx="494.56" cy="434.5" r="26.32"/><rect class="cls-2" x="460.92" y="474.87" width="67.13" height="15.02" rx="7.51"/><text class="cls-15" transform="translate(470.83 485.49)">pe<tspan class="cls-44" x="10.62" y="0">r</tspan><tspan class="cls-45" x="13.9" y="0">io</tspan><tspan class="cls-27" x="21.67" y="0">d</tspan><tspan x="27.17" y="0">.</tspan><tspan class="cls-41" x="29.22" y="0">h</tspan><tspan x="34.69" y="0">tml</tspan></text><line class="cls-9" x1="494.53" y1="408.18" x2="494.53" y2="461.07"/><line class="cls-9" x1="521.12" y1="434.45" x2="468.23" y2="434.45"/><line class="cls-9" x1="472.78" y1="419.7" x2="516.33" y2="419.7"/><line class="cls-9" x1="472.18" y1="448.47" x2="517" y2="448.37"/><path class="cls-9" d="M494.56,408.17c32.86,26.35,0,52.64,0,52.64" transform="translate(0 0.01)"/><path class="cls-9" d="M494.3,408.24c-33.33,26.55,0,52.63,0,52.63" transform="translate(0 0.01)"/></g></svg>